<svg width="1200" height="800" viewBox="0 0 1200 800" fill="none" xmlns="http://www.w3.org/2000/svg">
  <defs>
    <radialGradient id="otherGlow" cx="0" cy="0" r="1" gradientUnits="userSpaceOnUse" gradientTransform="translate(856 228) rotate(90) scale(214 280)">
      <stop stop-color="#E8E8E8" stop-opacity="0.28"/>
      <stop offset="1" stop-color="#E8E8E8" stop-opacity="0"/>
    </radialGradient>
    <linearGradient id="sheet" x1="702" y1="116" x2="1000" y2="360" gradientUnits="userSpaceOnUse">
      <stop stop-color="#F2F2F3"/>
      <stop offset="1" stop-color="#BDBDC0"/>
    </linearGradient>
    <linearGradient id="cup" x1="894" y1="350" x2="1098" y2="432" gradientUnits="userSpaceOnUse">
      <stop stop-color="#15171B" stop-opacity="0.96"/>
      <stop offset="1" stop-color="#0B0C10" stop-opacity="0.9"/>
    </linearGradient>
  </defs>

  <ellipse cx="854" cy="228" rx="244" ry="220" fill="url(#otherGlow)"/>

  <g transform="translate(704 118) rotate(-6 148 124)">
    <rect width="296" height="248" rx="38" fill="url(#sheet)" fill-opacity="0.96" stroke="#F3F3F4" stroke-opacity="0.38" stroke-width="2"/>
    <circle cx="56" cy="42" r="12" fill="#F47171"/>
    <circle cx="94" cy="42" r="12" fill="#F6B91A"/>
    <circle cx="132" cy="42" r="12" fill="#45C68B"/>
    <rect x="52" y="94" width="34" height="34" rx="9" fill="#D1D1D4" stroke="#A6A7AC" stroke-width="3"/>
    <rect x="52" y="156" width="34" height="34" rx="9" fill="#D1D1D4" stroke="#A6A7AC" stroke-width="3"/>
    <rect x="52" y="218" width="34" height="34" rx="9" fill="#D1D1D4" stroke="#A6A7AC" stroke-width="3"/>
    <rect x="120" y="100" width="112" height="6" rx="3" fill="#A6A7AC" fill-opacity="0.42"/>
    <rect x="120" y="120" width="128" height="6" rx="3" fill="#A6A7AC" fill-opacity="0.28"/>
    <rect x="120" y="162" width="136" height="6" rx="3" fill="#A6A7AC" fill-opacity="0.34"/>
    <rect x="120" y="182" width="116" height="6" rx="3" fill="#A6A7AC" fill-opacity="0.24"/>
    <rect x="120" y="224" width="126" height="6" rx="3" fill="#A6A7AC" fill-opacity="0.34"/>
  </g>

  <g transform="translate(956 368) rotate(7 90 62)">
    <rect width="180" height="124" rx="34" fill="url(#cup)" stroke="#414348" stroke-opacity="0.34" stroke-width="2"/>
    <circle cx="88" cy="62" r="38" fill="none" stroke="#5B5E65" stroke-width="7"/>
    <circle cx="88" cy="62" r="48" fill="none" stroke="#6A6D75" stroke-opacity="0.16" stroke-width="8"/>
  </g>

  <g transform="translate(652 300) rotate(-12 54 54)">
    <rect width="108" height="108" rx="18" fill="#E8D49A" fill-opacity="0.76"/>
    <rect x="22" y="28" width="62" height="6" rx="3" fill="#8C7440" fill-opacity="0.28"/>
    <rect x="22" y="46" width="48" height="6" rx="3" fill="#8C7440" fill-opacity="0.2"/>
  </g>

  <path d="M1012 138L1080 214" stroke="#B98E55" stroke-opacity="0.54" stroke-width="10" stroke-linecap="round"/>
  <path d="M1068 200L1096 226" stroke="#D7C7A7" stroke-width="12" stroke-linecap="round"/>
</svg>
