<svg width="1200" height="800" viewBox="0 0 1200 800" fill="none" xmlns="http://www.w3.org/2000/svg">
  <defs>
    <radialGradient id="travelGlow" cx="0" cy="0" r="1" gradientUnits="userSpaceOnUse" gradientTransform="translate(842 214) rotate(90) scale(206 270)">
      <stop stop-color="#B8E8D1" stop-opacity="0.42"/>
      <stop offset="1" stop-color="#B8E8D1" stop-opacity="0"/>
    </radialGradient>
    <linearGradient id="travelCard" x1="646" y1="118" x2="1006" y2="364" gradientUnits="userSpaceOnUse">
      <stop stop-color="#D8F3E4" stop-opacity="0.94"/>
      <stop offset="1" stop-color="#9FD3B7" stop-opacity="0.88"/>
    </linearGradient>
  </defs>

  <ellipse cx="846" cy="218" rx="238" ry="214" fill="url(#travelGlow)"/>

  <g transform="translate(660 114) rotate(4 166 126)">
    <rect width="332" height="252" rx="42" fill="url(#travelCard)" fill-opacity="0.96" stroke="#C9F0DD" stroke-opacity="0.42" stroke-width="2"/>
    <rect x="0" y="112" width="332" height="140" rx="0" fill="#7CB497" fill-opacity="0.14"/>
    <path d="M0 174C44 166 82 162 134 162C200 162 250 168 332 188V252H0V174Z" fill="#517C67" fill-opacity="0.4"/>
    <path d="M0 202C54 196 102 194 154 194C230 194 278 202 332 220V252H0V202Z" fill="#2F5A49" fill-opacity="0.58"/>
    <path d="M194 118C220 136 238 160 238 188H150C150 160 168 136 194 118Z" fill="#6B9F83" fill-opacity="0.74"/>
    <path d="M264 150C290 168 308 192 308 220H220C220 192 238 168 264 150Z" fill="#355F4F" fill-opacity="0.78"/>
    <path d="M112 138C136 154 150 174 150 198H74C74 174 88 154 112 138Z" fill="#7EB094" fill-opacity="0.62"/>
    <circle cx="156" cy="108" r="13" fill="#F3FFF8" stroke="#67A88A" stroke-width="5"/>
    <circle cx="228" cy="148" r="13" fill="#F3FFF8" stroke="#67A88A" stroke-width="5"/>
    <circle cx="304" cy="144" r="13" fill="#F3FFF8" stroke="#67A88A" stroke-width="5"/>
    <path d="M154 108C174 118 188 124 212 134C232 143 250 145 302 145" stroke="#8BC6AA" stroke-opacity="0.78" stroke-width="4" stroke-linecap="round" stroke-dasharray="8 10"/>
  </g>

  <g transform="translate(620 120) rotate(-8 56 44)">
    <rect width="112" height="88" rx="18" fill="#EDF9F2" fill-opacity="0.72" stroke="#C9F0DD" stroke-opacity="0.4" stroke-width="2"/>
    <rect x="24" y="20" width="64" height="10" rx="5" fill="#4F846A" fill-opacity="0.72"/>
    <rect x="24" y="42" width="54" height="8" rx="4" fill="#6FA98B" fill-opacity="0.5"/>
  </g>
</svg>
