<svg width="1200" height="1600" viewBox="0 0 1200 1600" fill="none" xmlns="http://www.w3.org/2000/svg">
  <rect width="1200" height="1600" fill="#06101D"/>
  <rect width="1200" height="1600" fill="url(#paint0_linear_1_2)"/>
  <circle cx="984" cy="244" r="244" fill="url(#paint1_radial_1_2)" fill-opacity="0.95"/>
  <circle cx="196" cy="1378" r="288" fill="url(#paint2_radial_1_2)" fill-opacity="0.72"/>
  <path d="M126 274C126 196.68 188.68 134 266 134H934C1011.32 134 1074 196.68 1074 274V1326C1074 1403.32 1011.32 1466 934 1466H266C188.68 1466 126 1403.32 126 1326V274Z" fill="url(#paint3_linear_1_2)" stroke="rgba(196,162,75,0.32)" stroke-width="2"/>
  <path d="M202 352C202 313.34 233.34 282 272 282H928C966.66 282 998 313.34 998 352V886H202V352Z" fill="url(#paint4_linear_1_2)"/>
  <path d="M202 886H998V1248C998 1286.66 966.66 1318 928 1318H272C233.34 1318 202 1286.66 202 1248V886Z" fill="url(#paint5_linear_1_2)"/>
  <rect x="262" y="1018" width="278" height="26" rx="13" fill="#C4A24B" fill-opacity="0.92"/>
  <rect x="262" y="1078" width="456" height="20" rx="10" fill="#E9EDF7" fill-opacity="0.9"/>
  <rect x="262" y="1122" width="382" height="20" rx="10" fill="#E9EDF7" fill-opacity="0.46"/>
  <rect x="262" y="1188" width="176" height="18" rx="9" fill="#8FA0C5" fill-opacity="0.42"/>
  <g opacity="0.88">
    <path d="M345 515C345 488.49 366.49 467 393 467H807C833.51 467 855 488.49 855 515V647C855 673.51 833.51 695 807 695H393C366.49 695 345 673.51 345 647V515Z" fill="#0E1B31"/>
    <path d="M394 503H806C812.627 503 818 508.373 818 515V647C818 653.627 812.627 659 806 659H394C387.373 659 382 653.627 382 647V515C382 508.373 387.373 503 394 503Z" stroke="#29405F" stroke-width="2"/>
    <path d="M452 556.5C452 538.551 466.551 524 484.5 524H716.5C734.449 524 749 538.551 749 556.5V605.5C749 623.449 734.449 638 716.5 638H484.5C466.551 638 452 623.449 452 605.5V556.5Z" fill="url(#paint6_linear_1_2)"/>
    <path d="M538 586L585 541L632 586L585 631L538 586Z" fill="#F4D37D"/>
  </g>
  <defs>
    <linearGradient id="paint0_linear_1_2" x1="64" y1="76" x2="1200" y2="1600" gradientUnits="userSpaceOnUse">
      <stop stop-color="#0A1730"/>
      <stop offset="0.48" stop-color="#06101D"/>
      <stop offset="1" stop-color="#02060E"/>
    </linearGradient>
    <radialGradient id="paint1_radial_1_2" cx="0" cy="0" r="1" gradientUnits="userSpaceOnUse" gradientTransform="translate(984 244) rotate(90) scale(244)">
      <stop stop-color="#C4A24B"/>
      <stop offset="1" stop-color="#C4A24B" stop-opacity="0"/>
    </radialGradient>
    <radialGradient id="paint2_radial_1_2" cx="0" cy="0" r="1" gradientUnits="userSpaceOnUse" gradientTransform="translate(196 1378) rotate(90) scale(288)">
      <stop stop-color="#223A63"/>
      <stop offset="1" stop-color="#223A63" stop-opacity="0"/>
    </radialGradient>
    <linearGradient id="paint3_linear_1_2" x1="168" y1="178" x2="1074" y2="1466" gradientUnits="userSpaceOnUse">
      <stop stop-color="#0D1830" stop-opacity="0.96"/>
      <stop offset="1" stop-color="#08101F" stop-opacity="0.98"/>
    </linearGradient>
    <linearGradient id="paint4_linear_1_2" x1="202" y1="282" x2="998" y2="886" gradientUnits="userSpaceOnUse">
      <stop stop-color="#14274A"/>
      <stop offset="1" stop-color="#0A1528"/>
    </linearGradient>
    <linearGradient id="paint5_linear_1_2" x1="202" y1="886" x2="998" y2="1318" gradientUnits="userSpaceOnUse">
      <stop stop-color="#0A1324"/>
      <stop offset="1" stop-color="#060D18"/>
    </linearGradient>
    <linearGradient id="paint6_linear_1_2" x1="452" y1="524" x2="749" y2="638" gradientUnits="userSpaceOnUse">
      <stop stop-color="#1B335D"/>
      <stop offset="1" stop-color="#0E1D36"/>
    </linearGradient>
  </defs>
</svg>
